<?xml version="1.0" standalone="no"?><!DOCTYPE svg PUBLIC "-//W3C//DTD SVG 1.1//EN" "http://www.w3.org/Graphics/SVG/1.1/DTD/svg11.dtd"><svg t="1646502261915" class="icon" viewBox="0 0 1024 1024" version="1.1" xmlns="http://www.w3.org/2000/svg" p-id="1593" width="24" height="24" xmlns:xlink="http://www.w3.org/1999/xlink"><defs><style type="text/css"></style></defs><path d="M804.408889 331.093333l-145.635556-141.084444a68.835556 68.835556 0 0 0-47.786666-19.342222h-341.333334A68.266667 68.266667 0 0 0 199.111111 238.933333v546.133334A68.266667 68.266667 0 0 0 267.377778 853.333333h489.244444a68.266667 68.266667 0 0 0 68.266667-68.266666V380.017778a69.404444 69.404444 0 0 0-20.48-48.924445z m-185.457778-100.124444l145.635556 141.084444a11.377778 11.377778 0 0 1 3.413333 7.964445v6.257778h-160.426667V227.555556h3.413334a11.377778 11.377778 0 0 1 7.964444 3.413333zM756.622222 796.444444H267.377778a11.377778 11.377778 0 0 1-11.377778-11.377777V238.933333a11.377778 11.377778 0 0 1 11.377778-11.377777h284.444444v187.164444a29.013333 29.013333 0 0 0 28.444445 28.444444h187.733333v341.333334a11.377778 11.377778 0 0 1-11.377778 11.946666z" p-id="1594" fill="#2c2c2c"></path></svg>