<?xml version="1.0" standalone="no"?><!DOCTYPE svg PUBLIC "-//W3C//DTD SVG 1.1//EN" "http://www.w3.org/Graphics/SVG/1.1/DTD/svg11.dtd"><svg t="1646502399132" class="icon" viewBox="0 0 1024 1024" version="1.1" xmlns="http://www.w3.org/2000/svg" p-id="5109" width="24" height="24" xmlns:xlink="http://www.w3.org/1999/xlink"><defs><style type="text/css"></style></defs><path d="M747.52 192.426667a25.6 25.6 0 0 0-46.08 4.693333c-10.666667 30.293333-29.44 62.72-58.88 64-98.133333 4.693333-217.6 0-326.826667 99.413333s-119.466667 295.253333-116.053333 401.493334a17.066667 17.066667 0 0 0 24.746667 14.933333 944.213333 944.213333 0 0 0 337.493333-281.6 34.133333 34.133333 0 0 1 57.173333 37.973333A991.146667 991.146667 0 0 1 304.213333 810.666667a17.066667 17.066667 0 0 0 7.68 32c123.306667 0 322.56-15.36 422.4-139.946667 161.706667-201.386667 68.693333-416.426667 13.226667-510.293333z" p-id="5110"></path></svg>