<?xml version="1.0" standalone="no"?><!DOCTYPE svg PUBLIC "-//W3C//DTD SVG 1.1//EN" "http://www.w3.org/Graphics/SVG/1.1/DTD/svg11.dtd"><svg t="1646547273430" class="icon" viewBox="0 0 1024 1024" version="1.1" xmlns="http://www.w3.org/2000/svg" p-id="2126" width="24" height="24" xmlns:xlink="http://www.w3.org/1999/xlink"><defs><style type="text/css"></style></defs><path d="M785.152 838.229333a42.112 42.112 0 0 1-32.597333 15.104h-292.864a42.069333 42.069333 0 0 1-34.56-17.749333 42.112 42.112 0 0 1-5.888-38.4L542.72 426.666667H597.333333v256a42.666667 42.666667 0 1 0 85.333334 0v-256h49.194666l62.848 376.917333a42.368 42.368 0 0 1-9.557333 34.688zM384 256h85.333333V170.666667H384v85.333333z m384 0a42.666667 42.666667 0 0 0-42.666667 42.666667v42.666666h-170.666666V170.666667h213.333333a42.709333 42.709333 0 0 1 0 85.333333z m42.666667 124.501333l68.181333 409.088a127.658667 127.658667 0 0 1-28.586667 103.808A127.872 127.872 0 0 1 752.554667 938.666667h-292.864a126.72 126.72 0 0 1-103.850667-53.205334 126.72 126.72 0 0 1-17.493333-115.328l92.885333-278.741333A210.602667 210.602667 0 0 1 341.333333 512.085333a42.666667 42.666667 0 1 1 0-85.333333 127.829333 127.829333 0 0 0 120.106667-85.333333H341.333333a42.666667 42.666667 0 0 1-42.666666-42.666667V128a42.666667 42.666667 0 0 1 42.666666-42.666667h426.666667c70.570667 0 128 57.386667 128 128a127.829333 127.829333 0 0 1-85.333333 120.064v47.061334zM194.261333 260.522667a42.709333 42.709333 0 0 1 38.186667 76.288l-85.333333 42.666666a42.709333 42.709333 0 0 1-38.186667-76.330666l85.333333-42.666667z m38.144-128a42.666667 42.666667 0 0 1-38.186666 76.288l-85.333334-42.666667a42.666667 42.666667 0 0 1 38.186667-76.288l85.333333 42.666667z" fill="#2c2c2c" p-id="2127"></path></svg>