<?xml version="1.0" standalone="no"?><!DOCTYPE svg PUBLIC "-//W3C//DTD SVG 1.1//EN" "http://www.w3.org/Graphics/SVG/1.1/DTD/svg11.dtd"><svg t="1646502366446" class="icon" viewBox="0 0 1024 1024" version="1.1" xmlns="http://www.w3.org/2000/svg" p-id="4694" width="24" height="24" xmlns:xlink="http://www.w3.org/1999/xlink"><defs><style type="text/css"></style></defs><path d="M793.6 866.133333a64.853333 64.853333 0 0 1-45.226667-18.773333L597.333333 693.76a286.293333 286.293333 0 1 1 94.293334-85.333333l149.333333 149.76a64 64 0 0 1-47.36 107.946666z m-341.333333-588.8a167.68 167.68 0 1 0 167.253333 167.68 167.68 167.68 0 0 0-166.4-167.68z" p-id="4695"></path><path d="M453.12 256A189.013333 189.013333 0 1 0 640 445.013333 189.013333 189.013333 0 0 0 453.12 256z" fill="#FFFFFF" p-id="4696"></path><path d="M853.333333 741.546667l-136.533333-137.386667a308.48 308.48 0 1 0-125.44 116.053333l142.08 142.08a85.333333 85.333333 0 0 0 120.746667 0 85.333333 85.333333 0 0 0-0.853334-120.746666z m-30.293333 90.453333a42.666667 42.666667 0 0 1-60.16 0L597.333333 666.88a266.24 266.24 0 1 1 62.72-57.6l162.56 162.56a42.666667 42.666667 0 0 1 1.28 60.16z" fill="#FFFFFF" p-id="4697"></path><path d="M346.453333 415.146667h213.333334v59.733333h-213.333334z" p-id="4698"></path></svg>